#!OML:ASF I:\Random Stuff\random\construction\7_22_03\Session 2\subj1.ASF
:FULLY-SPECIFIED
:DEGREES
1894
root 4.72467 17.7174 -8.43587 14.1251 -39.0753 -2.51248
lowerback 9.30672 -6.48241 -2.64107
upperback 3.20335 -8.86881 -0.84358
thorax -1.57552 -4.43305 1.4952
lowerneck -16.7791 -9.61498 -12.9688
upperneck 42.899 -12.295 1.39557
head 20.9889 -6.99893 0.0463566
rclavicle 1.78906e-014 2.06736e-014
rhumerus -47.503 49.11 -60.3826
rradius 113.066
rwrist -7.18326
rhand -27.5342 29.7722
rfingers 7.12502
rthumb -0.93607 -0.205475
lclavicle 1.78906e-014 2.06736e-014
lhumerus -6.97591 -19.5723 91.2195
lradius 39.2735
lwrist 423.794
lhand -17.4336 50.6408
lfingers 7.12502
lthumb -171.183 1340.44
rfemur -21.834 11.5284 19.3878
rtibia 15.1831
rfoot -9.07166 3.16831
rtoes -22.5448
lfemur -23.2771 -1.95052 -10.3097
ltibia 21.9364
lfoot -10.9587 14.6797
ltoes -28.3365
1895
root 4.73096 17.722 -8.42485 14.1681 -39.2414 -2.46732
lowerback 9.35884 -6.47542 -2.78747
upperback 3.1676 -8.87332 -0.787003
thorax -1.60954 -4.43491 1.63973
lowerneck -16.7423 -9.67077 -12.9208
upperneck 42.8013 -12.3491 1.29285
head 20.8961 -7.02401 -0.0188739
rclavicle 9.02482e-014 -1.11319e-014
rhumerus -48.2142 49.2139 -61.0738
rradius 113.422
rwrist -5.86555
rhand -28.4744 30.6954
rfingers 7.12502
rthumb -1.84407 0.723585
lclavicle 9.02482e-014 -1.11319e-014
lhumerus -7.07081 -19.4324 91.2827
lradius 39.4033
lwrist 423.688
lhand -17.2464 50.4551
lfingers 7.12502
lthumb -171.002 1340.24
rfemur -21.955 11.6106 19.2522
rtibia 15.2629
rfoot -9.10357 3.22718
rtoes -21.9026
lfemur -23.2598 -1.65473 -10.4624
ltibia 21.8628
lfoot -10.9515 14.4666
ltoes -28.1513
1896
root 4.73892 17.7242 -8.41434 14.22 -39.3716 -2.37476
lowerback 9.34942 -6.48133 -2.90632
upperback 3.14507 -8.89097 -0.75473
thorax -1.60367 -4.44405 1.73742
lowerneck -16.6869 -9.7241 -12.8692
upperneck 42.6992 -12.434 1.25475
head 20.8058 -7.05234 -0.0582764
rclavicle 1.94809e-014 -6.36111e-015
rhumerus -48.9527 49.234 -61.8673
rradius 113.709
rwrist -4.61118
rhand -29.5839 31.3879
rfingers 7.12502
rthumb -2.91558 1.4281
lclavicle 1.94809e-014 -6.36111e-015
lhumerus -7.1747 -19.2899 91.2958
lradius 39.6534
lwrist 423.547
lhand -17.261 50.5823
lfingers 7.12502
lthumb -171.017 1340.37
rfemur -22.1164 11.5896 19.1064
rtibia 15.3186
rfoot -9.16673 3.32781
rtoes -21.8028
lfemur -23.3232 -1.42739 -10.6372
ltibia 21.8253
lfoot -10.9225 14.2999
ltoes -28.1132
1897
root 4.74744 17.7233 -8.40305 14.2299 -39.4936 -2.27306
lowerback 9.36569 -6.47602 -2.94661
upperback 3.14475 -8.88832 -0.761903
thorax -1.60802 -4.44272 1.7534
lowerneck -16.6187 -9.78167 -12.7929
upperneck 42.5686 -12.55 1.25749
head 20.6977 -7.08282 -0.0862009
rclavicle 8.07066e-014 4.77083e-015
rhumerus -49.6368 49.131 -62.6642
rradius 113.957
rwrist -3.49892
rhand -30.4967 32.3182
rfingers 7.12502
rthumb -3.79716 2.37231
lclavicle 8.07066e-014 4.77083e-015
lhumerus -7.26842 -19.3523 91.2981
lradius 39.8947
lwrist 423.549
lhand -17.6695 50.8467
lfingers 7.12502
lthumb -171.411 1340.65
rfemur -22.2164 11.4912 18.9894
rtibia 15.3215
rfoot -9.24001 3.47418
rtoes -22.3775
lfemur -23.3749 -1.42401 -10.7789
ltibia 21.8456
lfoot -10.952 14.4067
ltoes -28.2254
1898
root 4.75421 17.7213 -8.39117 14.2641 -39.6622 -2.25549
lowerback 9.35277 -6.46763 -2.92588
upperback 3.17753 -8.87422 -0.751425
thorax -1.56909 -4.43704 1.74744
lowerneck -16.5353 -9.82904 -12.7317
upperneck 42.3841 -12.6278 1.24285
head 20.5444 -7.10339 -0.107023
rclavicle 1.90833e-014 -3.18055e-015
rhumerus -50.1197 49.0346 -63.2868
rradius 114.169
rwrist -2.77831
rhand -31.0949 33.5892
rfingers 7.12502
rthumb -4.37474 3.65443
lclavicle 1.90833e-014 -3.18055e-015
lhumerus -7.27356 -19.3586 91.2965
lradius 40.0036
lwrist 423.508
lhand -17.9409 50.7863
lfingers 7.12502
lthumb -171.673 1340.6
rfemur -22.2696 11.4283 18.9482
rtibia 15.2981
rfoot -9.30452 3.61713
rtoes -23.1773
lfemur -23.3854 -1.43049 -10.8445
ltibia 21.8926
lfoot -11.0162 14.5703
ltoes -28.3489
1899
root 4.76078 17.7215 -8.37994 14.3143 -39.8761 -2.23278
lowerback 9.28333 -6.46314 -2.92992
upperback 3.226 -8.86488 -0.719415
thorax -1.47554 -4.43538 1.76824
lowerneck -16.5018 -9.85368 -12.7606
upperneck 42.2504 -12.6642 1.28823
head 20.4566 -7.11392 -0.0804669
rclavicle 2.16278e-013 -1.11319e-014
rhumerus -50.4091 48.9612 -63.7162
rradius 114.353
rwrist -2.29567
rhand -31.5846 34.8421
rfingers 7.12502
rthumb -4.84766 4.9176
lclavicle 2.16278e-013 -1.11319e-014
lhumerus -7.20957 -19.2374 91.2913
lradius 40.0439
lwrist 423.267
lhand -17.8873 50.52
lfingers 7.12502
lthumb -171.621 1340.33
rfemur -22.3534 11.4436 18.8655
rtibia 15.284
rfoot -9.3358 3.75463
rtoes -23.4121
lfemur -23.3937 -1.45488 -10.9088
ltibia 21.9296
lfoot -11.0156 14.7704
ltoes -28.6461
1900
root 4.76783 17.7226 -8.368 14.3495 -40.0819 -2.17966
lowerback 9.21344 -6.46679 -2.90934
upperback 3.27658 -8.8643 -0.692101
thorax -1.38365 -4.43792 1.77181
lowerneck -16.5689 -9.87251 -12.8932
upperneck 42.2166 -12.698 1.43161
head 20.4918 -7.12456 -0.00121787
rclavicle 1.41137e-013 -5.08889e-014
rhumerus -50.5721 48.8511 -64.0642
rradius 114.538
rwrist -2.00495
rhand -32.1466 36.0811
rfingers 7.12502
rthumb -5.39027 6.16965
lclavicle 1.41137e-013 -5.08889e-014
lhumerus -7.10258 -19.2126 91.2383
lradius 39.987
lwrist 423.089
lhand -17.6717 50.2406
lfingers 7.12502
lthumb -171.413 1340.05
rfemur -22.459 11.4559 18.7467
rtibia 15.297
rfoot -9.35715 3.89751
rtoes -23.35
lfemur -23.4035 -1.39634 -11.0229
ltibia 21.9468
lfoot -10.9887 14.8917
ltoes -28.7453
1901
root 4.77349 17.7265 -8.35605 14.3967 -40.2848 -2.17971
lowerback 9.20682 -6.48929 -2.9142
upperback 3.33181 -8.89108 -0.589112
thorax -1.30406 -4.45447 1.87518
lowerneck -16.7141 -9.88544 -12.9805
upperneck 42.1558 -12.6626 1.4501
head 20.5023 -7.11491 0.0234851
rclavicle -1.63003e-014 -2.06736e-014
rhumerus -50.5469 48.8767 -64.2438
rradius 114.775
rwrist -1.9926
rhand -32.7217 37.1234
rfingers 7.12502
rthumb -5.94555 7.22685
lclavicle -1.63003e-014 -2.06736e-014
lhumerus -6.92021 -19.1067 91.1875
lradius 39.8352
lwrist 423.058
lhand -17.4928 50.0329
lfingers 7.12502
lthumb -171.24 1339.83
rfemur -22.5462 11.5267 18.6557
rtibia 15.359
rfoot -9.37257 4.0673
rtoes -22.3387
lfemur -23.3708 -1.20176 -11.1181
ltibia 21.9283
lfoot -11.0871 14.8955
ltoes -28.0616
1902
root 4.77709 17.7299 -8.34679 14.4107 -40.5171 -2.16056
lowerback 9.21432 -6.4877 -2.97809
upperback 3.38688 -8.89183 -0.487067
thorax -1.22472 -4.45857 2.00848
lowerneck -16.7626 -9.89657 -12.9705
upperneck 42.0497 -12.6379 1.39755
head 20.4335 -7.10655 0.0044783
rclavicle -6.48038e-014 -4.13472e-014
rhumerus -50.5092 48.8904 -64.4
rradius 115.029
rwrist -2.1034
rhand -33.1757 37.9614
rfingers 7.12502
rthumb -6.38385 8.07764
lclavicle -6.48038e-014 -4.13472e-014
lhumerus -6.83519 -18.9934 91.1561
lradius 39.8739
lwrist 423.144
lhand -17.5807 50.062
lfingers 7.12502
lthumb -171.325 1339.86
rfemur -22.6322 11.6183 18.5626
rtibia 15.4554
rfoot -9.30318 4.23148
rtoes -21.0436
lfemur -23.296 -0.979034 -11.2223
ltibia 21.8859
lfoot -11.203 14.8548
ltoes -27.2024
